<svg id="Layer_1" enable-background="new 0 0 512 512" viewBox="0 0 512 512" xmlns="http://www.w3.org/2000/svg"><g id="Layer_2_00000096055985417923325640000015703277531283390125_"><g id="Layer_1_copy_8"><g id="_47"><path d="m277.7 13.7 42 88.6 92.3-33c19.1-6.8 37.5 11.6 30.7 30.7l-33 92.3 88.6 42c18.3 8.7 18.3 34.7 0 43.4l-88.6 42 33 92.3c6.8 19.1-11.6 37.5-30.7 30.7l-92.3-33-42 88.6c-8.7 18.3-34.7 18.3-43.4 0l-42-88.6-92.3 33c-19 6.8-37.5-11.7-30.7-30.7l33-92.3-88.6-42c-18.3-8.7-18.3-34.7 0-43.4l88.6-42-33-92.3c-6.8-19 11.7-37.5 30.7-30.7l92.3 33 42-88.6c8.7-18.3 34.7-18.3 43.4 0z"/></g></g></g></svg>