<svg id="Layer_1" enable-background="new 0 0 512 512" viewBox="0 0 512 512" xmlns="http://www.w3.org/2000/svg"><g id="Layer_2_00000052064583263830398590000008139405005906711169_"><g id="Layer_1_copy_8"><g id="_73"><path d="m98.2 278.7-94.2 137.3c-7.1 10.4-4.5 24.5 5.9 31.6 3.8 2.6 8.3 4 12.9 4h188.4c12.6 0 22.8-10.2 22.8-22.7 0-4.6-1.4-9.1-4-12.9l-94.2-137.3c-7.1-10.4-21.3-13-31.6-5.9-2.4 1.6-4.4 3.6-6 5.9z"/><path d="m376.2 278.7-94.2 137.3c-7.1 10.4-4.5 24.5 5.9 31.6 3.8 2.6 8.3 4 12.9 4h188.5c12.6 0 22.8-10.1 22.8-22.7 0-4.6-1.4-9.1-4-12.9l-94.2-137.3c-7.1-10.4-21.3-13-31.6-5.9-2.5 1.6-4.5 3.6-6.1 5.9z"/><path d="m237.2 70.3-94.2 137.3c-7.1 10.4-4.5 24.5 5.9 31.6 3.8 2.6 8.3 4 12.9 4h188.5c12.6 0 22.8-10.1 22.8-22.7 0-4.6-1.4-9.1-4-12.9l-94.3-137.3c-7.1-10.4-21.2-13-31.6-5.9-2.4 1.6-4.4 3.6-6 5.9z"/></g></g></g></svg>